PathFileType	4	(X/Y/Z)	C:\Users\Basilio\Documents\Thesis Gigler\squatting_fais\c3dfiles\019\SJ_pre3\markers_experimental.trc
DataRate	CameraRate	NumFrames	NumMarkers	Units	OrigDataRate	OrigDataStartFrame	OrigNumFrames
200.000000	200.000000	4	59	mm	200.000000	0	1302
Frame#	Time	FHD			RBHD			C7			T10			CLAV			LSHO			LUUPA			LMUPA			LDUPA			LLEP			LMEP			LRAD			LUL			LRFIN			RSHO			RUPA1			RMUPA			RDUPA			RLEP			RMEP			RRAD			RUL			RUFIN			LASI			RASI			USACR			LSACR			RSACR			LTHI1			LTHI2			LTHI3			LTHI4			LLFC			LTIB1			LTIB2			LTIB3			LTIB4			LLMAL			LMMAL			LHEE			LMT1			LMT2			LMT5			RTHI			RTHI2			RTHI3			RTHI4			RLFC			RTIB1			RTIB2			RTIB3			RTIB4			RLMAL			RMMAL			RHEE			RMT1			RMT2			RMT5			LBHD			
		X1	Y1	Z1	X2	Y2	Z2	X3	Y3	Z3	X4	Y4	Z4	X5	Y5	Z5	X6	Y6	Z6	X7	Y7	Z7	X8	Y8	Z8	X9	Y9	Z9	X10	Y10	Z10	X11	Y11	Z11	X12	Y12	Z12	X13	Y13	Z13	X14	Y14	Z14	X15	Y15	Z15	X16	Y16	Z16	X17	Y17	Z17	X18	Y18	Z18	X19	Y19	Z19	X20	Y20	Z20	X21	Y21	Z21	X22	Y22	Z22	X23	Y23	Z23	X24	Y24	Z24	X25	Y25	Z25	X26	Y26	Z26	X27	Y27	Z27	X28	Y28	Z28	X29	Y29	Z29	X30	Y30	Z30	X31	Y31	Z31	X32	Y32	Z32	X33	Y33	Z33	X34	Y34	Z34	X35	Y35	Z35	X36	Y36	Z36	X37	Y37	Z37	X38	Y38	Z38	X39	Y39	Z39	X40	Y40	Z40	X41	Y41	Z41	X42	Y42	Z42	X43	Y43	Z43	X44	Y44	Z44	X45	Y45	Z45	X46	Y46	Z46	X47	Y47	Z47	X48	Y48	Z48	X49	Y49	Z49	X50	Y50	Z50	X51	Y51	Z51	X52	Y52	Z52	X53	Y53	Z53	X54	Y54	Z54	X55	Y55	Z55	X56	Y56	Z56	X57	Y57	Z57	X58	Y58	Z58	X59	Y59	Z59	

1	0	-350.3709106445313	1641.234375	-1006.046325683594	-345.4965820312501	1631.047729492188	-866.4107666015627	-359.5628356933594	1463.628540039063	-937.3951416015627	-383.8819274902344	1172.095581054688	-940.4209594726565	-224.6284484863282	1419.340454101563	-944.9182739257815	-292.1689758300782	1453.172973632813	-1098.128540039063	-295.5111389160157	1303.653564453125	-1200.51953125	-282.6769409179688	1262.763793945313	-1175.43896484375	-301.9950866699219	1242.662109375	-1228.409912109375	-335.2316894531251	1185.625732421875	-1281.085571289063	-393.1296386718751	1165.559936523438	-1252.31201171875	-280.4845275878907	969.002136230469	-1154.410522460938	-255.1859436035157	952.3918457031252	-1214.93359375	-235.3173217773438	957.3349609375002	-1122.358276367188	-279.2273559570313	1447.083618164063	-795.4456176757815	-336.6355590820313	1311.703735351563	-660.6124877929689	-299.4175415039063	1278.815063476563	-662.1760864257814	-335.0696411132813	1252.616943359375	-622.4832763671876	-326.1637573242188	1177.251586914063	-594.3586425781251	-387.204071044922	1168.077392578125	-613.0552978515626	-280.9796447753907	970.7730712890627	-738.2653198242189	-249.8032379150391	946.818298339844	-687.1646118164064	-230.4000701904297	951.9267578125002	-776.1489868164065	-220.7640533447266	971.3154907226565	-1057.79736328125	-210.6733398437501	967.817077636719	-849.730895996094	-378.4766235351563	1041.485473632813	-944.9683227539065	-384.3674316406251	1008.30615234375	-972.160583496094	-381.1405944824219	1009.819641113281	-915.3326416015627	-322.1828918457032	723.7579956054689	-1147.131469726563	-292.4080810546876	644.4475097656251	-1158.316040039063	-244.7960662841797	645.9108886718751	-1150.736694335938	-320.0827941894532	591.4501342773439	-1143.786865234375	-329.0096130371094	494.1123046875001	-1140.038208007813	-279.5710449218751	354.6590881347657	-1139.16748046875	-346.2231750488282	317.1513061523438	-1183.369262695313	-305.2791137695313	311.4465332031251	-1170.709106445313	-297.6998291015626	227.6572875976563	-1149.850708007813	-372.1072082519532	98.99747467041018	-1174.678344726563	-333.5768737792969	96.11298370361331	-1100.952758789063	-416.3587341308595	47.65880203247071	-1120.3515625	-202.8412322998047	56.9563446044922	-1159.889526367188	-209.8309631347657	56.59216308593751	-1198.690063476563	-262.8905944824219	33.39855575561524	-1241.054931640625	-282.3302917480469	789.6965942382815	-750.4742431640626	-248.7100677490235	736.1239624023439	-745.9465332031251	-220.1110382080079	727.8446044921876	-761.1918945312501	-282.1532897949219	656.1344604492189	-734.3470458984376	-329.2319946289063	494.7356567382814	-746.9366455078126	-276.5517883300782	310.4514465332032	-757.4677734375001	-339.2771301269532	238.2963409423829	-700.4197387695314	-299.0162048339844	233.7671203613282	-723.1323242187501	-296.3015747070313	184.1280670166016	-755.1332397460939	-361.4576721191407	100.0737838745117	-709.2746582031251	-328.5077514648438	95.60164642333986	-778.8840942382815	-402.8084716796876	44.29197311401368	-762.8105468750001	-196.2807312011719	54.49903106689455	-725.6555175781251	-205.8268127441407	60.54200744628908	-679.9689331054689	-256.7541198730469	40.75426101684571	-638.4678955078126	nan	nan	nan	
2	0.005	-350.3564453125001	1641.161376953125	-1006.123229980469	-345.4694519042969	1631.03173828125	-866.5289306640627	-359.5451660156251	1463.669555664063	-937.4683227539065	-383.8158874511719	1172.082275390625	-940.5412597656252	-224.6152496337891	1419.382568359375	-944.9133300781252	-292.0904235839844	1453.173950195313	-1098.167236328125	-295.2520446777344	1303.66455078125	-1200.568237304688	-282.4806518554688	1262.754272460938	-1175.462768554688	-301.8183593750001	1242.63330078125	-1228.460205078125	-334.9558410644532	1185.611206054688	-1281.18603515625	-392.8782043457032	1165.556274414063	-1252.469116210938	-280.3410949707032	969.032165527344	-1154.424682617188	-254.9478302001954	952.4068603515627	-1214.924438476563	-235.2199096679688	957.3400878906252	-1122.332763671875	-279.2337646484376	1447.087646484375	-795.4353637695315	-336.6942443847657	1311.731079101563	-660.6212158203126	-299.5843505859376	1278.927124023438	-662.3267211914064	-335.1111755371094	1252.574584960938	-622.5004272460939	-326.1860961914063	1177.208618164063	-594.4028320312501	-387.2639770507814	1168.0712890625	-613.1385498046876	-281.0135498046876	970.7798461914065	-738.2883300781251	-249.8098297119141	946.8823852539065	-687.1745605468751	-230.4210357666016	951.9473876953127	-776.155944824219	-220.684310913086	971.3447875976565	-1057.857666015625	-210.7510833740235	967.7927856445315	-849.689147949219	-378.4375000000001	1041.405151367188	-945.048767089844	-384.309539794922	1008.23291015625	-972.2070922851565	-381.1055603027344	1009.76416015625	-915.3652343750002	-322.0077819824219	723.7895507812501	-1147.138916015625	-292.3161010742188	644.4750366210939	-1158.313842773438	-244.6527099609376	645.9193115234376	-1150.743530273438	-319.9394836425782	591.5133056640626	-1143.735961914063	-328.8771667480469	494.1167602539064	-1140.030517578125	-279.4143066406251	354.6041564941407	-1139.191284179688	-346.2074584960938	317.1654663085938	-1183.446411132813	-305.1417846679688	311.3964538574219	-1170.706909179688	-297.6647033691407	227.6755981445313	-1149.869873046875	-372.1347351074219	99.06258392333987	-1174.679077148438	-333.5318298339844	96.12909698486331	-1100.943115234375	-416.3207397460939	47.69896316528321	-1120.335815429688	-202.8446960449219	56.95414352416994	-1159.9267578125	-209.836654663086	56.65113830566408	-1198.659423828125	-262.8966064453126	33.40668869018555	-1241.058471679688	-282.4277343750001	789.748474121094	-750.5059204101564	-248.6902770996094	736.1351318359376	-745.9005737304689	-220.1577148437501	727.8673095703126	-761.1130981445314	-282.2458496093751	656.1683349609376	-734.3645019531251	-329.2292785644532	494.7268676757814	-746.9246215820314	-276.5846252441407	310.4259338378907	-757.4748535156251	-339.2686767578126	238.3105773925782	-700.4213256835939	-299.0006713867188	233.8062286376954	-723.1216430664064	-296.2732849121094	184.1082611083985	-755.1079101562501	-361.3812255859376	100.068473815918	-709.2980346679689	-328.5075988769532	95.6016311645508	-778.8839111328127	-402.820281982422	44.32818603515626	-762.8364868164064	-196.2730712890626	54.50414657592775	-725.6527099609376	-205.8521881103516	60.54018402099611	-679.9208984375001	-256.7313842773438	40.76097488403321	-638.4763183593751	nan	nan	nan	
3	0.01	-350.3089599609376	1641.09033203125	-1006.259582519531	-345.4301147460938	1631.057861328125	-866.6397094726565	-359.4991455078126	1463.66064453125	-937.5261230468752	-383.8246154785157	1172.082763671875	-940.6372680664065	-224.6038055419922	1419.333984375	-944.9202880859377	-291.8779602050782	1453.155151367188	-1098.140258789063	-295.0598449707032	1303.645751953125	-1200.640991210938	-282.3033447265626	1262.729125976563	-1175.547973632813	-301.4880981445313	1242.66650390625	-1228.486328125	-334.7435913085938	1185.63232421875	-1281.313232421875	-392.6910705566407	1165.621826171875	-1252.66796875	-280.1344909667969	969.1096801757815	-1154.458129882813	-254.7849884033204	952.473327636719	-1214.91455078125	-233.7002258300782	957.3419189453127	-1121.177368164063	-279.3028869628907	1447.076782226563	-795.493835449219	-336.7185363769532	1311.716918945313	-660.6763916015626	-299.5615539550782	1278.917602539063	-662.2869262695314	-335.1957702636719	1252.63525390625	-622.5191040039064	-326.1438903808594	1177.344604492188	-594.4258422851564	-387.2647705078126	1168.07080078125	-613.1387939453126	-281.0133972167969	970.7798461914065	-738.2881469726564	-249.8048553466797	946.885437011719	-687.1373291015626	-230.4210357666016	951.9473876953127	-776.155944824219	-220.4906768798829	971.351501464844	-1057.77880859375	-210.7281341552735	967.9055786132815	-849.6431274414065	-378.4283447265626	1041.353149414063	-945.1250000000002	-384.8677062988282	1008.226501464844	-972.5859985351565	-381.1304321289063	1009.700378417969	-915.454772949219	-321.8770446777344	723.7792358398439	-1147.1337890625	-292.1099853515626	644.4406127929689	-1158.326171875	-244.4944305419922	645.9639282226564	-1150.735595703125	-319.7760620117188	591.5406494140626	-1143.716186523438	-328.7050781250001	494.1311340332032	-1140.041381835938	-279.2910461425782	354.5949401855469	-1139.169311523438	-346.0249023437501	317.2026062011719	-1183.345581054688	-305.0392456054688	311.4267272949219	-1170.7265625	-297.5707702636719	227.6653442382813	-1149.911376953125	-372.0798950195313	99.07357025146487	-1174.655639648438	-333.5246582031251	96.11951446533206	-1100.9267578125	-416.3411254882814	47.73099517822266	-1120.337646484375	-202.8461608886719	56.9816360473633	-1159.939453125	-209.836654663086	56.65113830566408	-1198.659423828125	-262.8525695800782	33.44428253173829	-1241.049682617188	-282.3927612304688	789.7570800781252	-750.5371704101564	-248.7009277343751	736.1770019531251	-745.8607177734376	-220.3915252685547	728.0588378906251	-761.0718994140626	-282.2415466308594	656.1688842773439	-734.3685913085939	-329.2281188964844	494.7393188476564	-746.9688110351564	-276.6241760253907	310.3990783691407	-757.4221801757814	-339.2959289550782	238.3205566406251	-700.4460449218751	-299.0006713867188	233.8062286376954	-723.1216430664064	-296.2540283203126	184.1268615722657	-755.0988769531251	-361.3739624023438	100.0617599487305	-709.2932739257814	-328.4993286132813	95.59194946289064	-778.869323730469	-402.6833801269532	44.20885848999024	-762.8858642578126	-196.2500457763672	54.52306747436525	-725.6354980468751	-205.8029479980469	60.57540512084962	-679.9639282226564	-256.7353515625001	40.75889587402344	-638.4756469726564	nan	nan	nan	
4	0.015	-350.2870483398438	1641.030395507813	-1006.362670898438	-345.4355468750001	1631.025756835938	-866.739685058594	-359.6281127929688	1463.660766601563	-937.637390136719	-383.7483520507813	1172.021240234375	-940.736267089844	-224.6246490478516	1419.411376953125	-944.9190063476565	-291.7947692871094	1453.1328125	-1098.208251953125	-294.8524169921876	1303.673950195313	-1200.6611328125	-282.2122192382813	1262.7099609375	-1175.590454101563	-301.3201904296876	1242.66259765625	-1228.589233398438	-334.4592590332032	1185.63916015625	-1281.4521484375	-392.4200439453126	1165.629638671875	-1252.799438476563	-279.9205627441407	969.137145996094	-1154.409545898438	-254.6165924072266	952.5093994140627	-1214.922119140625	-234.0825958251954	957.4165039062502	-1121.501953125	-279.3989868164063	1447.143676757813	-795.5112915039065	-336.8283081054688	1311.714965820313	-660.7014770507814	-299.5026245117188	1278.886474609375	-662.1926879882814	-335.2078552246094	1252.675659179688	-622.5344238281251	-326.2031860351563	1177.2900390625	-594.3859252929689	-387.1845092773439	1168.18359375	-613.1148071289064	-280.4303283691407	970.7084960937502	-737.9086914062501	-249.6983337402344	946.9761962890627	-687.0950927734376	-230.9814147949219	951.862976074219	-776.7183837890627	-220.4644012451172	971.4021606445315	-1057.811401367188	-210.6452026367188	967.8718261718752	-849.6031494140627	-378.3591613769532	1041.312744140625	-945.196472167969	-384.7763061523439	1008.179260253906	-972.6204223632815	-381.1064758300782	1009.664367675781	-915.4674072265627	-321.7156677246094	723.7830810546876	-1147.112426757813	-292.0124511718751	644.4993286132814	-1158.323974609375	-244.3568878173829	645.9974975585939	-1150.75732421875	-319.6311035156251	591.5405883789064	-1143.719482421875	-328.5520935058594	494.1167602539064	-1140.03759765625	-279.2155761718751	354.5701599121094	-1139.149658203125	-346.0026855468751	317.1851806640626	-1183.38232421875	-304.9288940429688	311.4161071777344	-1170.6982421875	-297.5350952148438	227.6147460937501	-1149.8896484375	-372.0667419433594	99.03555297851565	-1174.652221679688	-333.5016174316407	96.14360046386722	-1100.922607421875	-416.364227294922	47.71403121948243	-1120.314697265625	-202.843978881836	56.95609664916994	-1159.890380859375	-209.7972106933594	56.65183639526369	-1198.71044921875	-262.9142456054688	33.41624069213868	-1241.060302734375	-282.3927612304688	789.7570800781252	-750.5371704101564	-248.7600555419922	736.2289428710939	-745.8562622070314	-220.3636474609376	727.9922485351564	-761.0203857421876	-282.3009338378907	656.1875000000001	-734.3822021484376	-329.2162170410157	494.7388000488282	-747.0292968750001	-276.6245422363282	310.3993530273438	-757.4224243164064	-339.3046569824219	238.3319396972657	-700.4609375000001	-299.0006713867188	233.8062286376954	-723.1216430664064	-296.2504882812501	184.126693725586	-755.0700073242189	-361.3865356445313	100.0889511108399	-709.3007812500001	-328.5032348632813	95.61920166015626	-778.8906250000002	-402.6248779296876	44.13188552856446	-762.9132690429689	-196.2422790527344	54.5134620666504	-725.6422729492189	-205.8449401855469	60.53997802734376	-679.9201660156251	-256.7075805664063	40.73199462890626	-638.4583740234376	nan	nan	nan	
